<mxfile host="app.diagrams.net" agent="Mozilla/5.0 (Windows NT 10.0; Win64; x64) AppleWebKit/537.36 (KHTML, like Gecko) Chrome/141.0.0.0 Safari/537.36" version="28.2.7">
  <diagram name="Страница — 1" id="L7pegW341-Cvob3SDEj0">
    <mxGraphModel dx="1042" dy="535" grid="1" gridSize="10" guides="1" tooltips="1" connect="1" arrows="1" fold="1" page="1" pageScale="1" pageWidth="3300" pageHeight="4681" math="0" shadow="0">
      <root>
        <mxCell id="0" />
        <mxCell id="1" parent="0" />
        <mxCell id="3qHl4PqVqLv_ZjPEbpaF-16" value="AbstractAim" style="swimlane;fontStyle=1;align=center;verticalAlign=top;childLayout=stackLayout;horizontal=1;startSize=26;horizontalStack=0;resizeParent=1;resizeParentMax=0;resizeLast=0;collapsible=1;marginBottom=0;whiteSpace=wrap;html=1;" parent="1" vertex="1">
          <mxGeometry x="204" y="10" width="210" height="164" as="geometry" />
        </mxCell>
        <mxCell id="3qHl4PqVqLv_ZjPEbpaF-17" value="- name: String&lt;div&gt;- dateOfCreation: LocalDateTime&lt;/div&gt;&lt;div&gt;- dateOfFinishing: LocalDateTime&lt;/div&gt;&lt;div&gt;- dateOfDeadline: LocalDateTime&lt;br&gt;&lt;div&gt;&lt;div&gt;&lt;/div&gt;&lt;/div&gt;&lt;div&gt;&lt;div&gt;&lt;div&gt;- isCompleted: Boolean&lt;/div&gt;&lt;div&gt;- comment: String&lt;br&gt;&lt;div&gt;&lt;br&gt;&lt;/div&gt;&lt;/div&gt;&lt;/div&gt;&lt;/div&gt;&lt;/div&gt;" style="text;strokeColor=none;fillColor=none;align=left;verticalAlign=top;spacingLeft=4;spacingRight=4;overflow=hidden;rotatable=0;points=[[0,0.5],[1,0.5]];portConstraint=eastwest;whiteSpace=wrap;html=1;" parent="3qHl4PqVqLv_ZjPEbpaF-16" vertex="1">
          <mxGeometry y="26" width="210" height="104" as="geometry" />
        </mxCell>
        <mxCell id="3qHl4PqVqLv_ZjPEbpaF-18" value="" style="line;strokeWidth=1;fillColor=none;align=left;verticalAlign=middle;spacingTop=-1;spacingLeft=3;spacingRight=3;rotatable=0;labelPosition=right;points=[];portConstraint=eastwest;strokeColor=inherit;" parent="3qHl4PqVqLv_ZjPEbpaF-16" vertex="1">
          <mxGeometry y="130" width="210" height="8" as="geometry" />
        </mxCell>
        <mxCell id="3qHl4PqVqLv_ZjPEbpaF-19" value="+ method(type): type" style="text;strokeColor=none;fillColor=none;align=left;verticalAlign=top;spacingLeft=4;spacingRight=4;overflow=hidden;rotatable=0;points=[[0,0.5],[1,0.5]];portConstraint=eastwest;whiteSpace=wrap;html=1;" parent="3qHl4PqVqLv_ZjPEbpaF-16" vertex="1">
          <mxGeometry y="138" width="210" height="26" as="geometry" />
        </mxCell>
        <mxCell id="MxHm8bXUCmK2yZea_yJ1-1" value="Goal" style="swimlane;fontStyle=1;align=center;verticalAlign=top;childLayout=stackLayout;horizontal=1;startSize=26;horizontalStack=0;resizeParent=1;resizeParentMax=0;resizeLast=0;collapsible=1;marginBottom=0;whiteSpace=wrap;html=1;" vertex="1" parent="1">
          <mxGeometry x="110" y="240" width="220" height="124" as="geometry" />
        </mxCell>
        <mxCell id="MxHm8bXUCmK2yZea_yJ1-2" value="-&amp;nbsp;&lt;span style=&quot;white-space-collapse: preserve;&quot;&gt;totalAmountOfTasks&lt;/span&gt;:&amp;nbsp;&lt;span style=&quot;white-space-collapse: preserve; background-color: transparent; color: light-dark(rgb(0, 0, 0), rgb(255, 255, 255));&quot;&gt;int &lt;/span&gt;&lt;div&gt;&lt;span style=&quot;white-space-collapse: preserve;&quot;&gt;- amountOfCompletedTasks&lt;/span&gt;:&amp;nbsp;&lt;span style=&quot;color: light-dark(rgb(0, 0, 0), rgb(255, 255, 255)); white-space-collapse: preserve; background-color: transparent;&quot;&gt;int &lt;/span&gt;&lt;br&gt;&lt;span style=&quot;white-space-collapse: preserve;&quot;&gt;- amountOfIncompletedTasks&lt;/span&gt;&lt;span style=&quot;background-color: transparent; color: light-dark(rgb(0, 0, 0), rgb(255, 255, 255));&quot;&gt;:&amp;nbsp;&lt;/span&gt;&lt;span style=&quot;background-color: transparent; color: light-dark(rgb(0, 0, 0), rgb(255, 255, 255)); white-space-collapse: preserve;&quot;&gt;int &lt;/span&gt;&lt;/div&gt;" style="text;strokeColor=none;fillColor=none;align=left;verticalAlign=top;spacingLeft=4;spacingRight=4;overflow=hidden;rotatable=0;points=[[0,0.5],[1,0.5]];portConstraint=eastwest;whiteSpace=wrap;html=1;" vertex="1" parent="MxHm8bXUCmK2yZea_yJ1-1">
          <mxGeometry y="26" width="220" height="64" as="geometry" />
        </mxCell>
        <mxCell id="MxHm8bXUCmK2yZea_yJ1-3" value="" style="line;strokeWidth=1;fillColor=none;align=left;verticalAlign=middle;spacingTop=-1;spacingLeft=3;spacingRight=3;rotatable=0;labelPosition=right;points=[];portConstraint=eastwest;strokeColor=inherit;" vertex="1" parent="MxHm8bXUCmK2yZea_yJ1-1">
          <mxGeometry y="90" width="220" height="8" as="geometry" />
        </mxCell>
        <mxCell id="MxHm8bXUCmK2yZea_yJ1-4" value="+ method(type): type" style="text;strokeColor=none;fillColor=none;align=left;verticalAlign=top;spacingLeft=4;spacingRight=4;overflow=hidden;rotatable=0;points=[[0,0.5],[1,0.5]];portConstraint=eastwest;whiteSpace=wrap;html=1;" vertex="1" parent="MxHm8bXUCmK2yZea_yJ1-1">
          <mxGeometry y="98" width="220" height="26" as="geometry" />
        </mxCell>
        <mxCell id="MxHm8bXUCmK2yZea_yJ1-5" value="Task" style="swimlane;fontStyle=1;align=center;verticalAlign=top;childLayout=stackLayout;horizontal=1;startSize=26;horizontalStack=0;resizeParent=1;resizeParentMax=0;resizeLast=0;collapsible=1;marginBottom=0;whiteSpace=wrap;html=1;" vertex="1" parent="1">
          <mxGeometry x="370" y="240" width="230" height="60" as="geometry" />
        </mxCell>
        <mxCell id="MxHm8bXUCmK2yZea_yJ1-7" value="" style="line;strokeWidth=1;fillColor=none;align=left;verticalAlign=middle;spacingTop=-1;spacingLeft=3;spacingRight=3;rotatable=0;labelPosition=right;points=[];portConstraint=eastwest;strokeColor=inherit;" vertex="1" parent="MxHm8bXUCmK2yZea_yJ1-5">
          <mxGeometry y="26" width="230" height="8" as="geometry" />
        </mxCell>
        <mxCell id="MxHm8bXUCmK2yZea_yJ1-8" value="+ method(type): type" style="text;strokeColor=none;fillColor=none;align=left;verticalAlign=top;spacingLeft=4;spacingRight=4;overflow=hidden;rotatable=0;points=[[0,0.5],[1,0.5]];portConstraint=eastwest;whiteSpace=wrap;html=1;" vertex="1" parent="MxHm8bXUCmK2yZea_yJ1-5">
          <mxGeometry y="34" width="230" height="26" as="geometry" />
        </mxCell>
        <mxCell id="MxHm8bXUCmK2yZea_yJ1-9" style="edgeStyle=orthogonalEdgeStyle;rounded=0;orthogonalLoop=1;jettySize=auto;html=1;exitX=0.5;exitY=0;exitDx=0;exitDy=0;entryX=0.002;entryY=0.098;entryDx=0;entryDy=0;entryPerimeter=0;" edge="1" parent="1" source="MxHm8bXUCmK2yZea_yJ1-1" target="3qHl4PqVqLv_ZjPEbpaF-16">
          <mxGeometry relative="1" as="geometry" />
        </mxCell>
        <mxCell id="MxHm8bXUCmK2yZea_yJ1-10" style="edgeStyle=orthogonalEdgeStyle;rounded=0;orthogonalLoop=1;jettySize=auto;html=1;exitX=0.5;exitY=0;exitDx=0;exitDy=0;entryX=1.004;entryY=0.098;entryDx=0;entryDy=0;entryPerimeter=0;" edge="1" parent="1" source="MxHm8bXUCmK2yZea_yJ1-5" target="3qHl4PqVqLv_ZjPEbpaF-16">
          <mxGeometry relative="1" as="geometry" />
        </mxCell>
        <mxCell id="MxHm8bXUCmK2yZea_yJ1-11" value="AimManager" style="swimlane;fontStyle=1;align=center;verticalAlign=top;childLayout=stackLayout;horizontal=1;startSize=26;horizontalStack=0;resizeParent=1;resizeParentMax=0;resizeLast=0;collapsible=1;marginBottom=0;whiteSpace=wrap;html=1;" vertex="1" parent="1">
          <mxGeometry x="690" y="150" width="210" height="180" as="geometry" />
        </mxCell>
        <mxCell id="MxHm8bXUCmK2yZea_yJ1-12" value="- library: Library" style="text;strokeColor=none;fillColor=none;align=left;verticalAlign=top;spacingLeft=4;spacingRight=4;overflow=hidden;rotatable=0;points=[[0,0.5],[1,0.5]];portConstraint=eastwest;whiteSpace=wrap;html=1;" vertex="1" parent="MxHm8bXUCmK2yZea_yJ1-11">
          <mxGeometry y="26" width="210" height="26" as="geometry" />
        </mxCell>
        <mxCell id="MxHm8bXUCmK2yZea_yJ1-13" value="" style="line;strokeWidth=1;fillColor=none;align=left;verticalAlign=middle;spacingTop=-1;spacingLeft=3;spacingRight=3;rotatable=0;labelPosition=right;points=[];portConstraint=eastwest;strokeColor=inherit;" vertex="1" parent="MxHm8bXUCmK2yZea_yJ1-11">
          <mxGeometry y="52" width="210" height="8" as="geometry" />
        </mxCell>
        <mxCell id="MxHm8bXUCmK2yZea_yJ1-14" value="+ addAim(type): void&lt;div&gt;+ deleteAim(type): void&lt;/div&gt;&lt;div&gt;+ adjustAim(type): void&lt;div&gt;+ accomplishAim(type): void&lt;/div&gt;&lt;/div&gt;" style="text;strokeColor=none;fillColor=none;align=left;verticalAlign=top;spacingLeft=4;spacingRight=4;overflow=hidden;rotatable=0;points=[[0,0.5],[1,0.5]];portConstraint=eastwest;whiteSpace=wrap;html=1;" vertex="1" parent="MxHm8bXUCmK2yZea_yJ1-11">
          <mxGeometry y="60" width="210" height="120" as="geometry" />
        </mxCell>
        <mxCell id="MxHm8bXUCmK2yZea_yJ1-15" value="Library" style="swimlane;fontStyle=1;align=center;verticalAlign=top;childLayout=stackLayout;horizontal=1;startSize=26;horizontalStack=0;resizeParent=1;resizeParentMax=0;resizeLast=0;collapsible=1;marginBottom=0;whiteSpace=wrap;html=1;" vertex="1" parent="1">
          <mxGeometry x="1170" y="50" width="210" height="188" as="geometry" />
        </mxCell>
        <mxCell id="MxHm8bXUCmK2yZea_yJ1-16" value="- name: String&lt;div&gt;- library: Collection&amp;lt;Collection&amp;lt;?&amp;gt;&amp;gt;&lt;br&gt;&lt;div&gt;&lt;br&gt;&lt;/div&gt;&lt;/div&gt;" style="text;strokeColor=none;fillColor=none;align=left;verticalAlign=top;spacingLeft=4;spacingRight=4;overflow=hidden;rotatable=0;points=[[0,0.5],[1,0.5]];portConstraint=eastwest;whiteSpace=wrap;html=1;" vertex="1" parent="MxHm8bXUCmK2yZea_yJ1-15">
          <mxGeometry y="26" width="210" height="114" as="geometry" />
        </mxCell>
        <mxCell id="MxHm8bXUCmK2yZea_yJ1-17" value="" style="line;strokeWidth=1;fillColor=none;align=left;verticalAlign=middle;spacingTop=-1;spacingLeft=3;spacingRight=3;rotatable=0;labelPosition=right;points=[];portConstraint=eastwest;strokeColor=inherit;" vertex="1" parent="MxHm8bXUCmK2yZea_yJ1-15">
          <mxGeometry y="140" width="210" height="8" as="geometry" />
        </mxCell>
        <mxCell id="MxHm8bXUCmK2yZea_yJ1-18" value="+ addGoal(type): void&lt;div&gt;+ deleteGoal(type): void&lt;/div&gt;" style="text;strokeColor=none;fillColor=none;align=left;verticalAlign=top;spacingLeft=4;spacingRight=4;overflow=hidden;rotatable=0;points=[[0,0.5],[1,0.5]];portConstraint=eastwest;whiteSpace=wrap;html=1;" vertex="1" parent="MxHm8bXUCmK2yZea_yJ1-15">
          <mxGeometry y="148" width="210" height="40" as="geometry" />
        </mxCell>
        <mxCell id="MxHm8bXUCmK2yZea_yJ1-19" value="Loader" style="swimlane;fontStyle=1;align=center;verticalAlign=top;childLayout=stackLayout;horizontal=1;startSize=26;horizontalStack=0;resizeParent=1;resizeParentMax=0;resizeLast=0;collapsible=1;marginBottom=0;whiteSpace=wrap;html=1;" vertex="1" parent="1">
          <mxGeometry x="970" y="280" width="210" height="180" as="geometry" />
        </mxCell>
        <mxCell id="MxHm8bXUCmK2yZea_yJ1-20" value="- library: Library" style="text;strokeColor=none;fillColor=none;align=left;verticalAlign=top;spacingLeft=4;spacingRight=4;overflow=hidden;rotatable=0;points=[[0,0.5],[1,0.5]];portConstraint=eastwest;whiteSpace=wrap;html=1;" vertex="1" parent="MxHm8bXUCmK2yZea_yJ1-19">
          <mxGeometry y="26" width="210" height="26" as="geometry" />
        </mxCell>
        <mxCell id="MxHm8bXUCmK2yZea_yJ1-21" value="" style="line;strokeWidth=1;fillColor=none;align=left;verticalAlign=middle;spacingTop=-1;spacingLeft=3;spacingRight=3;rotatable=0;labelPosition=right;points=[];portConstraint=eastwest;strokeColor=inherit;" vertex="1" parent="MxHm8bXUCmK2yZea_yJ1-19">
          <mxGeometry y="52" width="210" height="8" as="geometry" />
        </mxCell>
        <mxCell id="MxHm8bXUCmK2yZea_yJ1-22" value="+ importLibrary(type): void&lt;div&gt;+ exportLibrary(type): void&lt;/div&gt;&lt;div&gt;&lt;br&gt;&lt;/div&gt;" style="text;strokeColor=none;fillColor=none;align=left;verticalAlign=top;spacingLeft=4;spacingRight=4;overflow=hidden;rotatable=0;points=[[0,0.5],[1,0.5]];portConstraint=eastwest;whiteSpace=wrap;html=1;" vertex="1" parent="MxHm8bXUCmK2yZea_yJ1-19">
          <mxGeometry y="60" width="210" height="120" as="geometry" />
        </mxCell>
        <mxCell id="MxHm8bXUCmK2yZea_yJ1-23" value="Manager" style="swimlane;fontStyle=1;align=center;verticalAlign=top;childLayout=stackLayout;horizontal=1;startSize=26;horizontalStack=0;resizeParent=1;resizeParentMax=0;resizeLast=0;collapsible=1;marginBottom=0;whiteSpace=wrap;html=1;" vertex="1" parent="1">
          <mxGeometry x="910" y="50" width="210" height="180" as="geometry" />
        </mxCell>
        <mxCell id="MxHm8bXUCmK2yZea_yJ1-24" value="- library: Library" style="text;strokeColor=none;fillColor=none;align=left;verticalAlign=top;spacingLeft=4;spacingRight=4;overflow=hidden;rotatable=0;points=[[0,0.5],[1,0.5]];portConstraint=eastwest;whiteSpace=wrap;html=1;" vertex="1" parent="MxHm8bXUCmK2yZea_yJ1-23">
          <mxGeometry y="26" width="210" height="26" as="geometry" />
        </mxCell>
        <mxCell id="MxHm8bXUCmK2yZea_yJ1-25" value="" style="line;strokeWidth=1;fillColor=none;align=left;verticalAlign=middle;spacingTop=-1;spacingLeft=3;spacingRight=3;rotatable=0;labelPosition=right;points=[];portConstraint=eastwest;strokeColor=inherit;" vertex="1" parent="MxHm8bXUCmK2yZea_yJ1-23">
          <mxGeometry y="52" width="210" height="8" as="geometry" />
        </mxCell>
        <mxCell id="MxHm8bXUCmK2yZea_yJ1-26" value="+ addAim(type): void&lt;div&gt;+ deleteAim(type): void&lt;/div&gt;&lt;div&gt;+ adjustAim(type): void&lt;div&gt;+ accomplishAim(type): void&lt;/div&gt;&lt;/div&gt;" style="text;strokeColor=none;fillColor=none;align=left;verticalAlign=top;spacingLeft=4;spacingRight=4;overflow=hidden;rotatable=0;points=[[0,0.5],[1,0.5]];portConstraint=eastwest;whiteSpace=wrap;html=1;" vertex="1" parent="MxHm8bXUCmK2yZea_yJ1-23">
          <mxGeometry y="60" width="210" height="120" as="geometry" />
        </mxCell>
      </root>
    </mxGraphModel>
  </diagram>
</mxfile>
